<?xml version="1.0" encoding="UTF-8"?>
<svg xmlns="http://www.w3.org/2000/svg" version="1.1" viewBox="0 0 180.22 25">
  <defs>
    <style>
      .cls-1 {
        fill: #283a93;
      }

      .cls-2 {
        fill: #f2af1e;
      }

      .cls-3 {
        fill: #224690;
      }

      .cls-4 {
        fill: #f8bcd4;
      }

      .cls-5 {
        fill: #f69e1e;
      }

      .cls-6 {
        fill: #3e3e3d;
        font-family: TTNormsPro-Bold, 'TT Norms Pro';
        font-size: 7.05px;
        font-weight: 700;
      }

      .cls-7 {
        fill: #dddcee;
      }

      .cls-8 {
        fill: #f15c22;
      }

      .cls-9 {
        fill: #4ac0c7;
      }

      .cls-10 {
        fill: #078fc2;
      }

      .cls-11 {
        fill: #fff;
      }

      .cls-12 {
        fill: #d9d9ec;
      }

      .cls-13 {
        fill: #0c98c4;
      }

      .cls-14 {
        fill: #20448e;
      }

      .cls-15 {
        fill: #0099c5;
      }

      .cls-16 {
        fill: #4cc2c7;
      }

      .cls-17 {
        fill: #d5a948;
      }

      .cls-18 {
        fill: #ea1d25;
      }

      .cls-19 {
        fill: #36b3c7;
      }

      .cls-20 {
        fill: #fbfbfd;
      }

      .cls-21 {
        fill: #21438b;
      }

      .cls-22 {
        fill: #3fb9c7;
      }

      .cls-23 {
        fill: #21428b;
      }

      .cls-24 {
        fill: #1ba5c7;
      }

      .cls-25 {
        fill: #010101;
      }

      .cls-26 {
        fill: #21428a;
      }

      .cls-27 {
        fill: #20438c;
      }

      .cls-28 {
        fill: #4cc3c7;
      }

      .cls-29 {
        fill: #4cc1c7;
      }

      .cls-30 {
        fill: #fdfdfe;
      }

      .cls-31 {
        fill: #1a4893;
      }
    </style>
  </defs>
  <!-- Generator: Adobe Illustrator 28.6.0, SVG Export Plug-In . SVG Version: 1.2.0 Build 709)  -->
  <g>
    <g id="Layer_1">
      <g>
        <g>
          <rect class="cls-11" x=".64" y="1.93" width="42.36" height="21.13" rx="3.62" ry="3.62"/>
          <text class="cls-6" transform="translate(5.14 11.61)"><tspan x="0" y="0">CASH ON</tspan><tspan x="-1.43" y="6.67">DELIVERY</tspan></text>
        </g>
        <g>
          <rect class="cls-11" x="45.96" y="1.93" width="42.36" height="21.13" rx="3.62" ry="3.62"/>
          <g>
            <path class="cls-31" d="M81.98,16.84c-.41-1.91-.8-3.83-1.21-5.74-.22-1-.38-2.01-.65-2.99-.08-.16-.21-.18-.37-.18-.66,0-1.32,0-1.98,0-.46.07-.67.39-.83.78-.88,2.11-1.77,4.22-2.65,6.33-.29.7-.59,1.41-.9,2.15h1.85q.69,0,.93-.66t1.04-.75c.08,0,.15-.01.23-.02.68-.07,1.36-.03,2.04-.02.01,0,.02.03.03.06.07.35.16.69.22,1.04.04.26.13.37.42.36.52-.03,1.05-.03,1.57,0,.31.02.33-.08.28-.35ZM78.92,13.87c-.53,0-1.07,0-1.6,0-.17,0-.18-.06-.13-.2.39-1.05.77-2.09,1.16-3.14.02,0,.04,0,.06,0,.22,1.05.43,2.1.66,3.15.03.15,0,.2-.15.2Z"/>
            <path class="cls-31" d="M71.05,14.37c-.12-.42-.46-.63-.82-.83-.54-.29-1.1-.53-1.58-.93-.45-.38-.83-.81-.93-1.42.04-.29.04-.58,0-.87.21-1.25,1.05-1.95,2.17-2.35,1.21-.43,2.45-.4,3.68-.03.23.07.34.19.29.45-.09.48-.18.96-.24,1.45-.03.2-.07.24-.26.15-.67-.32-1.39-.4-2.12-.35-.26.02-.5.09-.72.24-.43.29-.45.72-.05,1.05.37.3.79.49,1.21.7.48.24.93.53,1.29.94.34.39.57.82.56,1.35-.05.11-.05.22,0,.33-.02.99-.49,1.73-1.29,2.28-.68.47-1.46.67-2.26.73-.99.08-1.97-.04-2.94-.32-.32-.09-.38-.25-.32-.55.1-.48.18-.96.23-1.45.03-.25.11-.23.29-.15.75.38,1.54.55,2.38.53.2,0,.4-.03.59-.09.4-.11.71-.32.82-.74.08-.07.08-.08,0-.16Z"/>
            <path class="cls-31" d="M63.21,8.06c-1.01,2.48-2.01,4.96-3.02,7.44-.19.46-.39.92-.57,1.39-.08.2-.17.3-.4.29-.68-.01-1.36,0-2.04,0-.15,0-.24-.02-.28-.19-.68-2.6-1.37-5.2-2.05-7.8,0-.02,0-.04,0-.07.19-.05.32.07.45.16,1.17.82,2.14,1.83,2.71,3.17.04.1.02.23.08.33.17.41.17.86.3,1.3.13-.06.12-.18.16-.28.7-1.88,1.4-3.77,2.1-5.65.03-.08.08-.16.12-.23.7,0,1.39,0,2.09,0,.13,0,.3-.05.37.13Z"/>
            <path class="cls-31" d="M65.76,13.48c-.16,1.02-.31,2.04-.49,3.06-.11.64-.12.63-.76.63-.51,0-1.03,0-1.54,0-.15,0-.21-.02-.18-.21.25-1.49.48-2.99.72-4.48,0-.03.03-.06.04-.09.04.02.02.07.05.09-.02-.07.02-.15-.03-.21.16-1.04.33-2.09.49-3.13.06-.36.12-.72.17-1.09.02-.15.08-.21.23-.21.67,0,1.34.01,2.01,0,.29,0,.19.18.17.31-.16,1.01-.32,2.02-.5,3.03-.12.7-.19,1.41-.36,2.1-.04-.04-.06-.09-.04-.11,0,.08-.03.19.02.3Z"/>
            <path class="cls-2" d="M57.95,12.48c-.6-1.29-1.5-2.32-2.68-3.11-.14-.09-.29-.16-.43-.24-.72-.46-1.51-.75-2.32-1-.09-.03-.26,0-.24-.17.02-.15.18-.1.28-.1,1.23,0,2.45,0,3.68,0,.56,0,.93.24,1.04.75.26,1.24.49,2.48.73,3.73.03.07.05.14-.07.14Z"/>
            <path class="cls-14" d="M63.21,8.06c-.12-.08-.25-.06-.39-.06-.58,0-1.16,0-1.73,0-.12,0-.25.05-.34-.07.03-.09.11-.06.17-.06.72,0,1.45,0,2.17,0,.17,0,.24.03.12.2Z"/>
            <path class="cls-3" d="M80.11,8.11s-.03.06-.04.08c-.08-.28-.31-.19-.5-.19-.5,0-1,0-1.5,0-.11,0-.22.04-.31-.06.34-.13.7-.05,1.05-.06.35-.01.71,0,1.06,0,.19,0,.27.06.24.25Z"/>
            <path class="cls-26" d="M77.42,15.76c.16-.13.34-.06.51-.06.42-.01.85,0,1.27,0,.1,0,.23-.05.29.1-.69-.01-1.38-.02-2.07-.03Z"/>
            <path class="cls-27" d="M67.72,10.34c.1.29.09.58,0,.87-.06-.29-.05-.58,0-.87Z"/>
            <path class="cls-17" d="M57.95,12.48s.04-.09.07-.14c.08.14.08.29.06.44-.04-.1-.09-.2-.13-.3Z"/>
            <path class="cls-21" d="M65.76,13.48c-.09-.11-.06-.22-.02-.42.02.13.02.18.03.23,0,.06-.01.12-.02.18Z"/>
            <path class="cls-23" d="M73.54,14.29c-.1-.11-.1-.22,0-.33,0,.11,0,.22,0,.33Z"/>
            <path class="cls-21" d="M63.57,12.28c.08.07.07.17.05.26-.09-.02-.04-.1-.06-.14,0-.04,0-.08.01-.12Z"/>
            <path class="cls-21" d="M71.05,14.37c.12-.07.07.05.07.08,0,.03.05.15-.08.08,0-.05,0-.1,0-.16Z"/>
          </g>
        </g>
        <g>
          <rect class="cls-11" x="91.28" y="1.93" width="42.36" height="21.13" rx="3.62" ry="3.62"/>
          <g>
            <path class="cls-25" d="M105.56,20.88v-1.12c0-.43-.26-.71-.71-.71-.22,0-.47.07-.63.32-.13-.2-.32-.32-.6-.32-.19,0-.37.06-.52.26v-.22h-.39v1.79h.39v-.99c0-.32.17-.47.43-.47s.39.17.39.47v.99h.39v-.99c0-.32.19-.47.43-.47.26,0,.39.17.39.47v.99h.43ZM111.35,19.09h-.63v-.54h-.39v.54h-.35v.35h.35v.82c0,.41.17.65.61.65.17,0,.35-.06.48-.13l-.11-.34c-.11.07-.24.09-.34.09-.19,0-.26-.11-.26-.3v-.8h.63v-.35h0ZM114.66,19.05c-.22,0-.37.11-.47.26v-.22h-.39v1.79h.39v-1.01c0-.3.13-.47.37-.47.07,0,.17.02.24.04l.11-.37c-.08-.02-.19-.02-.26-.02h0ZM109.65,19.24c-.19-.13-.45-.19-.73-.19-.45,0-.74.22-.74.58,0,.3.22.47.61.52l.19.02c.2.04.32.09.32.19,0,.13-.15.22-.41.22s-.47-.09-.6-.19l-.19.3c.2.15.48.22.76.22.52,0,.82-.24.82-.58,0-.32-.24-.48-.61-.54l-.19-.02c-.17-.02-.3-.06-.3-.17,0-.13.13-.2.34-.2.22,0,.45.09.56.15l.16-.32h0ZM120.04,19.05c-.22,0-.37.11-.47.26v-.22h-.39v1.79h.39v-1.01c0-.3.13-.47.37-.47.07,0,.17.02.24.04l.11-.37c-.08-.02-.19-.02-.26-.02h0ZM115.05,19.98c0,.54.37.93.95.93.26,0,.45-.06.63-.2l-.19-.32c-.15.11-.3.17-.47.17-.32,0-.54-.22-.54-.58s.22-.56.54-.58c.17,0,.32.06.47.17l.19-.32c-.19-.15-.37-.2-.63-.2-.58,0-.95.39-.95.93h0ZM118.66,19.98v-.89h-.39v.22c-.13-.17-.32-.26-.56-.26-.5,0-.89.39-.89.93s.39.93.89.93c.26,0,.45-.09.56-.26v.22h.39v-.89h0ZM117.23,19.98c0-.32.2-.58.54-.58.32,0,.54.24.54.58,0,.32-.22.58-.54.58-.33-.02-.54-.26-.54-.58h0ZM112.56,19.05c-.52,0-.89.37-.89.93s.37.93.91.93c.26,0,.52-.07.73-.24l-.19-.28c-.15.11-.34.19-.52.19-.24,0-.48-.11-.54-.43h1.32v-.15c.02-.57-.32-.95-.82-.95h0ZM112.56,19.39c.24,0,.41.15.45.43h-.93c.04-.24.2-.43.48-.43h0ZM122.25,19.98v-1.6h-.39v.93c-.13-.17-.32-.26-.56-.26-.5,0-.89.39-.89.93s.39.93.89.93c.26,0,.45-.09.56-.26v.22h.39v-.89h0ZM120.82,19.98c0-.32.2-.58.54-.58.32,0,.54.24.54.58,0,.32-.22.58-.54.58-.34-.02-.54-.26-.54-.58h0ZM107.75,19.98v-.89h-.39v.22c-.13-.17-.32-.26-.56-.26-.5,0-.89.39-.89.93s.39.93.89.93c.26,0,.45-.09.56-.26v.22h.39v-.89h0ZM106.3,19.98c0-.32.2-.58.54-.58.32,0,.54.24.54.58,0,.32-.22.58-.54.58-.34-.02-.54-.26-.54-.58Z"/>
            <g>
              <rect id="rect19" class="cls-8" x="109.52" y="5.52" width="5.86" height="10.53"/>
              <path class="cls-18" d="M109.91,10.79c0-2.14,1.01-4.04,2.55-5.27-1.14-.89-2.57-1.43-4.13-1.43-3.7,0-6.7,3-6.7,6.7s3,6.7,6.7,6.7c1.56,0,3-.54,4.13-1.43-1.55-1.21-2.55-3.13-2.55-5.27Z"/>
              <path id="path22" class="cls-5" d="M123.3,10.79c0,3.7-3,6.7-6.7,6.7-1.56,0-3-.54-4.13-1.43,1.56-1.23,2.55-3.13,2.55-5.27s-1.01-4.04-2.55-5.27c1.13-.89,2.57-1.43,4.13-1.43,3.71,0,6.7,3.02,6.7,6.7Z"/>
            </g>
          </g>
        </g>
        <g>
          <rect class="cls-11" x="136.6" y="1.93" width="42.36" height="21.13" rx="3.62" ry="3.62"/>
          <g>
            <path class="cls-1" d="M144.95,15.46c0,.23,0,.45,0,.67,0,.13-.02.24-.11.35-.24.29-.45.6-.67.9-.05.07-.11.1-.18.1-.62,0-1.23,0-1.85,0-.12,0-.19-.07-.2-.2,0-.02,0-.04,0-.06,0-2.81,0-5.62,0-8.44,0-.11.02-.2.13-.25.02,0,.04-.04.05-.06.18-.25.38-.5.55-.77.1-.16.21-.19.38-.19.54,0,1.07,0,1.61,0,.19,0,.24.06.24.24,0,1.08,0,2.15,0,3.25.03-.04.05-.06.07-.09.56-.87,1.13-1.74,1.69-2.62.06-.09.13-.13.24-.13.6,0,1.2,0,1.81,0,.09,0,.16.01.21.1.04.08.01.15-.03.22-.79,1.23-1.57,2.46-2.36,3.69-.04.07-.04.11,0,.18.86,1.23,1.73,2.45,2.59,3.68.03.04.06.08.08.12.03.07.03.14-.03.19-.16.16-.28.35-.41.53-.12.15-.24.3-.34.47-.03.05-.09.08-.15.08-.6,0-1.19,0-1.79,0-.08,0-.13-.05-.18-.11-.43-.59-.85-1.19-1.28-1.78-.02-.02-.03-.04-.06-.08Z"/>
            <path class="cls-1" d="M161.46,11.02c.25-.39.49-.77.73-1.14.34-.53.68-1.05,1.02-1.58.06-.09.13-.12.23-.12.6,0,1.21,0,1.81,0,.09,0,.16.02.2.1.04.08.02.15-.03.22-.79,1.23-1.58,2.47-2.37,3.7-.04.07-.04.11,0,.17.87,1.24,1.75,2.48,2.62,3.72.1.15.09.19-.03.33-.14.17-.27.36-.4.54-.1.13-.2.26-.29.4-.04.06-.09.08-.16.08-.59,0-1.19,0-1.78,0-.09,0-.14-.05-.19-.12-.43-.59-.85-1.18-1.28-1.77-.02-.02-.04-.05-.06-.09,0,.21,0,.41,0,.61,0,.07,0,.14,0,.21,0,.04-.01.08-.04.12-.26.31-.49.64-.73.97-.06.07-.12.11-.21.11-.6,0-1.21,0-1.81,0-.15,0-.21-.07-.21-.21,0-2.84,0-5.68,0-8.52,0-.09.03-.16.11-.2.03-.01.05-.04.06-.07.19-.26.37-.51.56-.77.02-.02.03-.05.04-.07.03-.08.1-.12.18-.12.6,0,1.2,0,1.81,0,.12,0,.18.07.2.18,0,.03,0,.06,0,.09,0,1.05,0,2.1,0,3.15,0,.02,0,.03,0,.08Z"/>
            <path class="cls-1" d="M157.68,11.12c-.24-1.06-.78-1.93-1.66-2.58-.74-.54-1.57-.77-2.49-.66-.78.09-1.44.43-2.02.96-.29.27-.51.6-.83.84-.09.07-.16.16-.24.24-.79.88-1.15,1.93-1.18,3,0,.47.03.83.1,1.18.23,1.05.72,1.95,1.58,2.62.88.69,1.88.93,2.98.68.83-.19,1.48-.66,2.02-1.3.05-.06.09-.12.15-.17.4-.3.73-.67.99-1.1.7-1.15.88-2.39.59-3.69ZM154.63,11.24c.47.52.68,1.14.69,1.71,0,.59-.11,1.03-.33,1.45-.03.06-.08.11-.14.14-.8.4-1.73.23-2.34-.43-.54-.59-.76-1.29-.71-2.08.03-.4.14-.77.33-1.12.03-.05.07-.09.12-.12.8-.41,1.76-.23,2.38.46Z"/>
            <path class="cls-1" d="M174.26,11.36c-.19-1.03-.65-1.91-1.44-2.6-.92-.8-1.99-1.09-3.19-.8-.81.2-1.45.65-1.97,1.29-.06.07-.11.14-.18.2-.32.25-.6.53-.82.87-.84,1.22-1.05,2.56-.7,3.99.27,1.09.85,1.98,1.8,2.6.8.53,1.68.7,2.62.51.86-.18,1.54-.64,2.1-1.3.08-.1.17-.2.27-.28.14-.11.27-.23.39-.36.83-.91,1.21-2,1.23-3.18,0-.34-.03-.64-.08-.93ZM171.01,11.1c.49.46.75,1.04.81,1.7,0,.09.01.18.02.22,0,.51-.11.96-.34,1.38-.03.06-.07.1-.13.13-.76.39-1.66.25-2.28-.37-.56-.55-.79-1.23-.78-2.01,0-.44.12-.86.34-1.25.03-.05.06-.09.12-.12.72-.39,1.63-.26,2.25.32Z"/>
            <path class="cls-4" d="M148.96,16.21h-.28c-.45,0-.9,0-1.35,0-.06,0-.1-.02-.13-.07-.71-.98-1.42-1.97-2.13-2.95-.04-.05-.07-.1-.14-.12-.13-.03-.22.06-.22.2,0,.2,0,.4,0,.6,0,.33,0,.65,0,.98,0,.43,0,.87.01,1.3,0,.08-.01.11-.1.1-.54,0-1.08,0-1.63,0-.07,0-.09-.01-.09-.08,0-2.79,0-5.58,0-8.38,0-.05.01-.07.07-.07.54,0,1.08,0,1.62,0,.08,0,.07.03.07.09,0,1.08,0,2.16,0,3.23,0,.03,0,.06,0,.09.01.08.05.14.14.16.09.02.16,0,.2-.08.11-.16.21-.32.31-.48.49-.76.98-1.51,1.46-2.27.04-.06.07-.08.14-.08.58,0,1.15,0,1.74,0-.06.09-.11.17-.16.25-.74,1.16-1.48,2.31-2.22,3.47-.1.16-.1.19,0,.34.86,1.23,1.72,2.45,2.59,3.68.01.02.03.04.05.08Z"/>
            <path class="cls-28" d="M146.45,17.18c-.14-.19-.27-.38-.41-.56-.02-.03-.01-.05,0-.07.19-.25.37-.5.56-.76.03-.04.04-.03.07,0,.12.17.25.34.37.52.02.02.02.04,0,.07-.2.27-.4.53-.6.81Z"/>
            <path class="cls-28" d="M143.7,16.47c-.19.26-.38.51-.56.76-.02.03-.04.03-.07.03-.28,0-.56,0-.86,0,.08-.11.16-.22.23-.32.11-.15.22-.3.33-.44.02-.02.02-.04.06-.04.27,0,.54,0,.82,0,.01,0,.02,0,.05,0Z"/>
            <path class="cls-28" d="M145.92,16.44c-.13-.18-.25-.34-.37-.51-.02-.03,0-.05,0-.07.19-.25.37-.5.56-.76.02-.03.04-.03.06,0,.11.16.23.32.34.48.01.02.02.03,0,.05-.2.27-.4.54-.61.82Z"/>
            <path class="cls-28" d="M145.66,14.39c.12.17.24.34.37.51.02.03,0,.05,0,.07-.19.25-.38.51-.57.76-.02.03-.04.04-.06,0-.11-.15-.22-.31-.33-.46-.02-.03-.02-.05,0-.07.2-.26.39-.53.6-.8Z"/>
            <path class="cls-28" d="M146.62,17.22c.19-.26.38-.51.56-.75.02-.03.04-.04.08-.04.11,0,.22,0,.33,0,.04,0,.06.01.08.05.05.07.1.14.15.21.02.03.03.06,0,.09-.1.13-.19.26-.29.39-.02.02-.03.05-.07.05-.27,0-.55,0-.84,0Z"/>
            <path class="cls-28" d="M144.93,15.07c0-.31,0-.62,0-.93,0-.04.01-.08.04-.11.06-.08.13-.17.19-.25.03-.04.04-.05.07,0,.1.14.2.29.31.43.02.02.03.04,0,.07-.2.26-.39.53-.59.8,0,0-.01,0-.02,0Z"/>
            <path class="cls-28" d="M142.71,8.77c0,.24,0,.47,0,.69,0,.03,0,.06-.02.08-.17.23-.34.46-.53.71,0-.09,0-.15,0-.21,0-.16,0-.32,0-.48,0-.03,0-.07.02-.1.17-.22.33-.44.5-.67,0,0,.01,0,.03-.02Z"/>
            <path class="cls-28" d="M142.71,13.6c0,.25,0,.48,0,.71,0,.03-.01.05-.03.08-.17.22-.33.45-.5.67,0,0,0,0-.02,0,0-.24,0-.47,0-.7,0-.02.01-.04.02-.05.17-.23.34-.46.53-.71Z"/>
            <path class="cls-28" d="M142.71,14.62c0,.25,0,.47,0,.69,0,.02,0,.04-.02.06-.17.23-.34.46-.53.71,0-.2,0-.37,0-.54,0-.13.03-.23.11-.33.15-.18.28-.38.44-.59Z"/>
            <path class="cls-28" d="M142.71,11.66c0,.24,0,.47,0,.69,0,.02-.01.04-.02.05-.17.23-.34.46-.52.71,0-.05,0-.09,0-.12,0-.17,0-.34,0-.51,0-.07.02-.12.06-.18.15-.2.3-.4.45-.6,0-.01.02-.02.04-.05Z"/>
            <path class="cls-28" d="M142.71,15.64c0,.22,0,.43,0,.65,0,.02,0,.04-.02.05-.17.23-.34.46-.53.71,0-.18,0-.34,0-.5,0-.14.03-.25.12-.36.15-.18.28-.37.42-.56h.02Z"/>
            <path class="cls-28" d="M142.16,14.04c0-.21,0-.42,0-.63,0-.02.01-.04.02-.06.17-.23.34-.46.52-.71,0,.13-.01.25,0,.36.03.23-.04.42-.19.59-.13.14-.23.3-.34.45h-.02Z"/>
            <path class="cls-28" d="M142.16,12.11c0-.23,0-.43,0-.64,0-.02,0-.04.02-.06.17-.23.34-.46.53-.71,0,.23,0,.45,0,.66,0,.01,0,.02-.01.03-.17.23-.35.47-.53.72Z"/>
            <path class="cls-28" d="M142.16,11.14c0-.2,0-.39,0-.59,0-.03.01-.05.03-.07.17-.23.34-.45.52-.7,0,.12-.01.22,0,.32.03.23-.04.42-.2.6-.12.14-.22.3-.33.45,0,0-.01,0-.02,0Z"/>
            <path class="cls-28" d="M143.31,17.27c.2-.26.38-.51.57-.76.02-.02.03-.04.06-.03.03.01.02.04.02.07,0,.22,0,.45,0,.67,0,.04-.01.06-.06.06-.19,0-.39,0-.6,0Z"/>
            <path class="cls-11" d="M148.88,16.43c-.17.23-.32.44-.48.65-.02.03-.04.03-.06,0-.08-.11-.16-.23-.24-.34-.02-.02-.02-.04,0-.07,0,0,0,0,.01-.01.09-.18.22-.26.43-.23.1.02.21,0,.34,0Z"/>
            <path class="cls-30" d="M144.64,16.47c-.15.21-.3.4-.45.61-.02-.09-.01-.17-.01-.24,0-.1,0-.2,0-.31,0-.04.01-.06.06-.06.13,0,.26,0,.41,0Z"/>
            <path class="cls-30" d="M142.28,8.53c.15-.2.28-.39.43-.59,0,.19,0,.36,0,.53,0,.04-.03.06-.07.06-.11,0-.22,0-.35,0Z"/>
            <path class="cls-16" d="M142.52,8.74c-.12.17-.23.31-.36.48,0-.16,0-.3,0-.44,0-.04.02-.04.05-.04.1,0,.19,0,.31,0Z"/>
            <path class="cls-16" d="M147.95,16.87c.08.12.16.22.24.34h-.49c.08-.11.16-.22.25-.34Z"/>
            <path class="cls-9" d="M144.93,13.37s.04.05.06.08q.11.15,0,.3s-.03.04-.06.07v-.45Z"/>
            <path class="cls-12" d="M148.07,16.43s-.05.11-.09.11c-.04,0-.05-.06-.09-.11h.18Z"/>
            <path class="cls-4" d="M165.51,16.21h-.62c-.34,0-.67,0-1.01,0-.06,0-.1-.02-.14-.07-.71-.98-1.42-1.97-2.13-2.95-.09-.13-.22-.15-.31-.06-.04.04-.05.09-.05.15,0,.75.01,1.51.02,2.26,0,.22,0,.43.01.65,0,.05-.01.07-.07.07-.56,0-1.11,0-1.67,0-.06,0-.08-.02-.08-.08,0-.01,0-.03,0-.04,0-2.77,0-5.53,0-8.3,0-.09.02-.11.11-.11.52,0,1.04,0,1.56,0,.07,0,.1.02.1.1,0,1.09,0,2.18,0,3.28,0,.13.05.2.16.21.09.01.14-.03.19-.1.29-.44.57-.88.86-1.33.31-.47.61-.95.92-1.42.03-.05.06-.07.13-.07.55,0,1.11,0,1.66,0h.09c-.1.16-.19.3-.29.45-.7,1.09-1.4,2.18-2.1,3.28-.09.15-.09.18,0,.33.86,1.23,1.73,2.46,2.59,3.68.01.02.03.04.05.08Z"/>
            <path class="cls-28" d="M163,17.17c-.13-.19-.27-.37-.4-.56-.02-.03-.02-.04,0-.07.19-.25.38-.51.57-.76.03-.04.04-.03.07,0,.12.17.25.34.37.52.02.02.02.04,0,.07-.2.26-.39.52-.58.78,0,0-.01,0-.02.02Z"/>
            <path class="cls-28" d="M160.26,16.47c-.13.18-.26.35-.38.51-.06.08-.12.16-.18.25-.02.03-.05.04-.08.04-.28,0-.56,0-.84,0,.03-.07.08-.12.12-.18.14-.19.29-.39.43-.58.02-.03.04-.04.09-.04.28,0,.55,0,.85,0Z"/>
            <path class="cls-28" d="M162.47,16.44s-.03-.03-.04-.04c-.11-.15-.21-.3-.32-.45-.03-.04-.02-.06,0-.1.19-.25.37-.49.55-.74.03-.04.04-.04.07,0,.11.15.22.3.33.45.03.03.02.06,0,.09-.19.25-.37.5-.56.75,0,.01-.02.02-.03.04Z"/>
            <path class="cls-28" d="M161.98,15.76c-.13-.18-.24-.34-.36-.51-.02-.02-.02-.04,0-.06.2-.27.4-.54.6-.81.13.17.25.34.37.51.02.03,0,.04,0,.06-.2.27-.39.53-.6.81Z"/>
            <path class="cls-28" d="M163.18,17.22c.12-.16.22-.3.33-.45.07-.1.15-.19.22-.29.03-.04.06-.05.11-.05.05,0,.09,0,.14,0,.08,0,.18-.03.23.02.08.07.13.18.2.27.02.03,0,.04-.02.06-.1.13-.2.27-.3.4-.01.02-.03.04-.06.04-.28,0-.55,0-.85,0Z"/>
            <path class="cls-28" d="M161.49,15.06c0-.12,0-.24,0-.36,0-.18,0-.35,0-.53,0-.06.02-.11.05-.15.06-.08.12-.16.18-.25.02-.03.04-.04.07,0,.1.15.21.29.31.43.02.03.02.05,0,.07-.19.26-.39.52-.58.78,0,0-.02,0-.02,0Z"/>
            <path class="cls-28" d="M159.26,8.78c0,.23,0,.46,0,.7,0,.02,0,.03-.01.05-.17.24-.35.47-.54.7,0-.17,0-.33,0-.5-.01-.17.04-.3.14-.42.14-.17.26-.35.39-.53,0,0,.01,0,.02,0Z"/>
            <path class="cls-28" d="M159.26,13.6c0,.25,0,.48,0,.71,0,.02,0,.04-.02.06-.17.23-.34.46-.53.71,0-.05,0-.07,0-.1,0-.14,0-.27,0-.41-.01-.17.03-.3.14-.43.14-.17.27-.36.42-.55Z"/>
            <path class="cls-28" d="M158.71,16.05c0-.22,0-.45,0-.67,0-.02.01-.04.03-.06.17-.23.34-.46.52-.71,0,.11,0,.2,0,.29,0,.14.03.29-.01.42-.04.13-.15.23-.24.35-.09.13-.19.25-.28.38,0,0-.01,0-.02,0Z"/>
            <path class="cls-28" d="M158.71,13.08c0-.22,0-.44,0-.66,0-.02,0-.04.02-.06.17-.23.34-.46.51-.69,0,0,0,0,.02,0,0,.23,0,.45,0,.68,0,.02,0,.03-.02.05-.17.23-.35.47-.52.7,0,0-.01,0-.02,0Z"/>
            <path class="cls-28" d="M159.26,15.64c0,.22,0,.43,0,.65,0,.02,0,.04-.02.05-.17.23-.34.46-.53.69,0-.08,0-.17,0-.25-.04-.3.04-.55.25-.77.11-.11.19-.25.29-.38,0,0,.01,0,.02,0Z"/>
            <path class="cls-28" d="M159.26,12.64c0,.23,0,.44,0,.65,0,.02,0,.03-.01.05-.17.23-.35.47-.54.7,0-.15,0-.29,0-.44-.01-.15.03-.28.13-.4.14-.18.27-.37.43-.57Z"/>
            <path class="cls-28" d="M158.71,12.08c0-.2,0-.4,0-.6,0-.03.01-.05.03-.08.17-.23.34-.45.52-.7,0,.11,0,.19,0,.28.04.28-.05.52-.24.72-.11.12-.2.26-.29.39,0,0-.01,0-.02,0Z"/>
            <path class="cls-28" d="M159.26,9.78c0,.23,0,.43,0,.63,0,.01,0,.02-.01.03-.17.24-.35.47-.54.73,0-.23,0-.43,0-.63,0-.01,0-.03.02-.04.17-.23.34-.47.53-.72Z"/>
            <path class="cls-28" d="M159.87,17.27c.11-.16.22-.3.33-.45.08-.1.16-.21.23-.31.02-.02.04-.05.07-.04.03.01.02.04.02.07,0,.22,0,.45,0,.67,0,.03,0,.06-.04.06-.2,0-.39,0-.61,0Z"/>
            <path class="cls-11" d="M165.44,16.43c-.17.24-.34.46-.51.69-.1-.14-.19-.26-.28-.39-.01-.02-.01-.04,0-.05,0,0,0,0,0-.01q.15-.23.42-.23c.11,0,.22,0,.35,0Z"/>
            <path class="cls-20" d="M161.2,16.47c-.15.21-.3.4-.45.61-.02-.21-.01-.39-.01-.58,0-.05.04-.03.06-.03.13,0,.25,0,.4,0Z"/>
            <path class="cls-30" d="M158.84,8.53c.14-.2.28-.38.42-.58.02.05,0,.1.01.15,0,.11,0,.23,0,.34,0,.06-.02.09-.09.09-.11,0-.21,0-.34,0Z"/>
            <path class="cls-16" d="M159.07,8.74c-.12.16-.23.31-.34.46,0,0-.01,0-.02,0,0-.14,0-.28,0-.42,0-.01,0-.03.03-.03.11,0,.21,0,.33,0Z"/>
            <path class="cls-16" d="M164.26,17.21c.08-.11.16-.22.25-.34.08.11.15.22.24.34h-.48Z"/>
            <path class="cls-29" d="M161.49,13.37s.03.04.04.05q.13.17,0,.34s-.02.02-.03.05v-.44Z"/>
            <path class="cls-7" d="M164.64,16.42c-.04.05-.07.09-.1.13-.03-.04-.06-.08-.09-.12.06-.02.11,0,.19-.01Z"/>
            <path class="cls-4" d="M157.49,11.22c-.23-1.02-.73-1.88-1.58-2.5-.92-.67-1.94-.85-3.03-.47-.83.29-1.46.85-1.91,1.6-.68,1.12-.83,2.33-.51,3.6.24.97.76,1.78,1.58,2.37.75.54,1.58.74,2.49.58.87-.16,1.57-.62,2.11-1.31.66-.83.95-1.78.96-2.83,0-.35-.03-.7-.11-1.04ZM152.5,14.1c-.54-.59-.76-1.29-.71-2.08.03-.4.14-.77.33-1.12.03-.05.07-.09.12-.12.8-.41,1.76-.23,2.38.46.47.52.68,1.14.69,1.71,0,.59-.11,1.03-.33,1.45-.03.06-.08.11-.14.14-.8.4-1.73.23-2.34-.43Z"/>
            <path class="cls-28" d="M151.32,15.48c.19.2.38.37.6.52.03.02.02.04,0,.07-.16.22-.32.44-.48.66-.02.03-.04.03-.07.01-.21-.13-.4-.29-.59-.46-.04-.03,0-.06,0-.08.17-.24.35-.48.53-.73Z"/>
            <path class="cls-28" d="M150.72,14.67c.14.24.29.45.46.65.03.03.02.05,0,.07-.17.23-.34.46-.5.69-.03.04-.05.04-.08,0-.16-.18-.31-.38-.44-.58-.01-.02-.02-.04,0-.07.19-.25.37-.51.56-.77Z"/>
            <path class="cls-28" d="M150.32,13.76c.09.26.18.49.3.72.01.03,0,.04,0,.06-.19.25-.37.51-.56.77-.1-.17-.16-.34-.24-.5-.08-.16-.07-.29.05-.43.16-.19.3-.4.46-.62Z"/>
            <path class="cls-28" d="M151.55,16.85c.17-.24.34-.46.5-.69.02-.03.04-.04.08-.02.21.13.43.23.67.32-.16.22-.32.44-.48.66-.02.03-.04.03-.07.02-.24-.07-.47-.16-.69-.29Z"/>
            <path class="cls-28" d="M149.66,14.39c-.07-.23-.1-.46-.15-.68-.03-.15.01-.26.11-.38.16-.2.31-.42.48-.64.02.12.03.23.05.34.02.16.06.31.09.46,0,.03.02.06,0,.1-.19.26-.38.52-.58.79Z"/>
            <path class="cls-28" d="M153.84,16.66c-.14.2-.28.38-.41.56-.03.04-.06.04-.1.04-.18.03-.68-.01-.87-.07.12-.17.25-.32.36-.5.09-.15.18-.19.35-.13.21.07.43.09.67.09Z"/>
            <path class="cls-28" d="M150.1,11.69c0,.2-.02.39-.01.58,0,.13-.03.23-.11.33-.16.21-.32.43-.48.64-.02-.03-.02-.06-.02-.09,0-.2,0-.4.03-.59,0-.05.02-.09.05-.13.18-.24.36-.49.54-.73Z"/>
            <path class="cls-28" d="M154.85,16.54c-.1.14-.19.26-.27.37,0,.01-.03.02-.04.03-.26.13-.54.22-.83.27-.02,0-.04.01-.07,0,.09-.12.18-.23.26-.36.08-.13.17-.21.35-.21.2,0,.39-.05.61-.1Z"/>
            <path class="cls-28" d="M149.59,12.09c.04-.24.1-.46.19-.68.03-.08.12-.14.17-.21.09-.12.19-.24.29-.35.01-.01.02-.02.05-.04-.03.15-.07.27-.09.4-.02.08-.04.15-.1.22-.17.2-.32.42-.47.63,0,.01-.02.03-.03.04Z"/>
            <path class="cls-9" d="M150.55,10.12c-.07.26-.29.43-.45.63.12-.23.27-.44.45-.63Z"/>
            <path class="cls-9" d="M155.4,16.35c-.14.14-.29.25-.45.36.05-.17.22-.3.45-.36Z"/>
            <path class="cls-4" d="M174.05,11.44c-.18-1.02-.63-1.89-1.42-2.57-.63-.53-1.35-.82-2.18-.82-.45,0-.88.09-1.28.28-.84.38-1.45,1.01-1.86,1.83-.47.93-.59,1.91-.41,2.93.19,1.06.68,1.96,1.54,2.63.74.58,1.58.82,2.51.68.9-.13,1.61-.59,2.18-1.29.68-.83.98-1.8.99-2.87,0-.27-.02-.54-.07-.81ZM169.09,14.16c-.56-.55-.79-1.23-.78-2.01,0-.44.12-.86.34-1.25.03-.05.06-.09.12-.12.72-.39,1.63-.26,2.25.32.49.46.75,1.04.81,1.7,0,.09.01.18.02.22,0,.51-.11.96-.34,1.38-.03.06-.07.1-.13.13-.76.39-1.66.25-2.28-.37Z"/>
            <path class="cls-28" d="M167.92,16.76s-.03-.02-.04-.02c-.2-.13-.39-.28-.56-.44-.04-.04-.04-.06,0-.11.16-.22.32-.44.48-.66.03-.05.05-.06.1-.01.16.17.33.32.53.46.05.03.06.05.02.1-.16.21-.31.42-.47.64-.01.02-.02.04-.04.04Z"/>
            <path class="cls-28" d="M167.72,15.35s-.02.04-.03.05c-.17.23-.33.46-.5.68-.03.04-.04.04-.07,0-.16-.18-.3-.37-.43-.58-.02-.04-.02-.06,0-.1.17-.23.34-.47.52-.7.02-.03.03-.06.06,0,.13.22.27.42.44.61,0,0,.01.02.02.03Z"/>
            <path class="cls-28" d="M166.84,13.76c.09.25.18.49.3.71,0,.02.02.04,0,.06-.19.26-.38.51-.57.78-.13-.23-.23-.46-.31-.69,0-.03,0-.05,0-.07.19-.26.38-.52.57-.79Z"/>
            <path class="cls-28" d="M168.77,17.15s-.09-.03-.14-.05c-.18-.06-.35-.13-.51-.22-.04-.02-.05-.04-.02-.07.16-.21.32-.43.47-.64.03-.04.05-.04.1-.02.19.12.39.22.6.29.05.02.04.04.02.07-.15.2-.29.4-.44.6-.02.02-.03.04-.07.03Z"/>
            <path class="cls-28" d="M166.62,12.69c.03.3.08.57.15.84,0,.03,0,.05-.01.07-.19.26-.38.51-.57.78-.05-.11-.06-.22-.09-.32-.03-.17-.06-.33-.08-.5,0-.03,0-.05,0-.07.19-.26.38-.52.59-.79Z"/>
            <path class="cls-28" d="M168.98,17.2c.16-.22.32-.43.47-.64.02-.03.04-.04.07-.03.27.08.54.12.84.13-.08.11-.15.21-.22.31-.06.08-.12.16-.17.24-.02.03-.04.05-.08.05-.3.03-.59,0-.9-.06Z"/>
            <path class="cls-28" d="M166.63,11.75c-.02.21-.02.43-.02.64,0,.03,0,.05-.03.08-.19.25-.37.5-.56.75,0,0-.01,0-.03.02-.01-.21.01-.42.02-.62,0-.12.05-.2.12-.29.16-.21.32-.42.47-.63.04,0,.02.03.02.05Z"/>
            <path class="cls-28" d="M170.14,17.23c.14-.19.26-.36.39-.54.02-.02.03-.04.06-.04.25,0,.49-.04.73-.1,0,0,.02,0,.04,0-.09.12-.18.24-.26.36-.01.01-.03.03-.05.03-.28.14-.58.23-.91.28Z"/>
            <path class="cls-28" d="M166.8,10.81c-.03.18-.08.35-.11.52,0,.03-.05.06-.08.09-.15.19-.29.39-.44.59-.02.02-.03.05-.07.07.04-.19.09-.37.15-.55.03-.09.07-.17.14-.24.11-.12.21-.25.32-.38.03-.03.06-.07.09-.1Z"/>
            <path class="cls-9" d="M167.07,10.15c-.05.17-.18.29-.28.42-.05.06-.1.12-.15.17,0,0-.02,0-.02,0,.13-.22.27-.42.44-.61.02,0,.02,0,.02.02Z"/>
            <path class="cls-9" d="M171.46,16.71c.09-.2.21-.3.46-.36-.15.14-.3.25-.46.36Z"/>
            <path class="cls-15" d="M166.63,11.75s0-.04-.02-.05c0,0,.01-.02.02-.03.02,0,.01.01.01.02,0,.02,0,.04-.02.05Z"/>
            <path class="cls-24" d="M167.07,10.15s-.01-.01-.02-.02c0-.02.02-.04.04-.05,0,.03-.01.05-.03.07Z"/>
            <path class="cls-13" d="M166.62,10.75s.02,0,.02,0c0,.02-.02.04-.04.05,0-.02,0-.04.02-.05Z"/>
            <path class="cls-1" d="M156.32,11.82c-.1-.69-.39-1.27-.91-1.73-.86-.75-2.1-.74-2.94.04-.54.5-.83,1.14-.89,1.86-.06.82.15,1.57.71,2.2.44.49,1,.76,1.67.77.12,0,.24,0,.36-.03.68-.13,1.19-.51,1.56-1.08.4-.62.53-1.3.43-2.03ZM154.84,14.53c-.8.4-1.73.23-2.34-.43-.54-.59-.76-1.29-.71-2.08.03-.4.14-.77.33-1.12.03-.05.07-.09.12-.12.8-.41,1.76-.23,2.38.46.47.52.68,1.14.69,1.71,0,.59-.11,1.03-.33,1.45-.03.06-.08.11-.14.14Z"/>
            <path class="cls-1" d="M172.85,11.87c-.07-.61-.3-1.15-.72-1.6-.47-.5-1.04-.77-1.73-.74-.59.02-1.09.27-1.49.68-.49.5-.75,1.12-.8,1.82-.05.69.11,1.32.5,1.89.45.65,1.07,1.02,1.88,1.04.12,0,.23,0,.35-.03.59-.11,1.07-.41,1.43-.88.5-.64.67-1.38.58-2.18ZM171.5,14.4c-.03.06-.07.1-.13.13-.76.39-1.66.25-2.28-.37-.56-.55-.79-1.23-.78-2.01,0-.44.12-.86.34-1.25.03-.05.06-.09.12-.12.72-.39,1.63-.26,2.25.32.49.46.75,1.04.81,1.7,0,.09.01.18.02.22,0,.51-.11.96-.34,1.38Z"/>
            <path class="cls-28" d="M154.74,11.05s-.02-.02-.04-.03c-.13-.13-.26-.24-.42-.33-.04-.02-.04-.04-.01-.08.16-.21.32-.43.48-.64.02-.03.04-.04.08-.02.17.08.32.19.46.31.03.03.02.04,0,.07-.17.23-.34.46-.51.69,0,.01-.02.03-.04.03Z"/>
            <path class="cls-28" d="M155.22,11.71c-.09-.18-.2-.35-.32-.5-.02-.03-.02-.05,0-.08.17-.23.34-.46.51-.7.02-.03.04-.03.07,0,.12.14.23.28.31.44.01.03.03.05,0,.08-.19.25-.37.49-.55.74,0,0-.01,0-.02.02Z"/>
            <path class="cls-28" d="M155.9,11.12c.08.18.14.36.18.54,0,.03,0,.06-.02.08-.19.25-.38.51-.58.78-.02-.09-.04-.17-.06-.24-.03-.1-.06-.2-.1-.3-.01-.03-.02-.06,0-.09.19-.25.37-.5.57-.77Z"/>
            <path class="cls-28" d="M153.54,10.38c.15-.21.3-.41.45-.61.02-.03.05-.03.07-.03.17.01.34.04.51.1.04.01.04.03.02.06-.16.21-.32.43-.47.64-.02.03-.04.03-.06.02-.16-.08-.33-.13-.52-.17Z"/>
            <path class="cls-28" d="M155.53,13.34c0-.18,0-.36-.01-.53,0-.02,0-.03.01-.05.19-.25.38-.51.57-.76,0,0,.01,0,.02-.02.02.18.01.35,0,.53,0,.02-.01.04-.02.06-.19.26-.38.51-.57.77Z"/>
            <path class="cls-28" d="M153.81,9.74c-.14.19-.27.36-.4.54-.04.06-.09.08-.15.07-.14-.02-.28,0-.42.02-.02,0-.05.02-.06,0-.01-.02.01-.03.03-.05.04-.06.09-.12.13-.18.09-.15.22-.23.38-.28.16-.05.32-.09.5-.11Z"/>
            <path class="cls-16" d="M155.32,14.18c.08-.16.09-.33.2-.47.17-.21.32-.43.49-.65,0,.26-.44.96-.69,1.12Z"/>
            <path class="cls-22" d="M152.58,10.33q-.06.1-.12.12c.03-.06.07-.1.12-.12Z"/>
            <path class="cls-28" d="M171.27,11.06c-.15-.15-.3-.28-.47-.38-.04-.02-.03-.04,0-.06.16-.21.32-.43.47-.64.02-.03.04-.05.08-.03.17.09.32.19.46.32.01.01.04.02.02.05-.18.25-.37.49-.55.74Z"/>
            <path class="cls-28" d="M171.74,11.72c-.1-.19-.21-.36-.34-.52-.02-.02,0-.04,0-.06.17-.23.35-.47.52-.7.02-.03.03-.03.06,0,.13.14.23.29.33.45.02.03.01.05,0,.07-.19.25-.37.5-.57.76Z"/>
            <path class="cls-28" d="M172.42,11.12c.08.18.13.36.18.55,0,.02,0,.04-.01.06-.19.26-.38.52-.58.79-.04-.15-.06-.3-.12-.43-.06-.12-.03-.21.05-.32.15-.19.29-.39.44-.59.01-.02.03-.03.05-.05Z"/>
            <path class="cls-28" d="M170.06,10.38c.16-.21.31-.41.46-.62.02-.03.04-.02.07-.02.18,0,.35.04.51.1.04.01.04.03.02.06-.16.21-.31.42-.47.63-.02.03-.04.03-.08.02-.16-.08-.32-.13-.5-.17Z"/>
            <path class="cls-28" d="M172.65,11.99c-.02.23.07.48-.11.7-.17.2-.32.43-.48.65-.03-.02-.01-.04-.01-.06,0-.11.02-.22,0-.33-.02-.12.02-.21.09-.3.17-.22.33-.44.49-.66h.02Z"/>
            <path class="cls-28" d="M170.33,9.75c-.15.2-.29.39-.42.57-.02.02-.03.04-.06.04-.19-.02-.37,0-.57.02.11-.14.2-.28.3-.4.05-.06.14-.08.21-.11.17-.07.35-.11.55-.13Z"/>
            <path class="cls-16" d="M172.53,13.09c-.13.42-.35.78-.67,1.08.03-.33.26-.56.44-.81.07-.1.14-.19.21-.28,0,0,.01,0,.02.01Z"/>
            <path class="cls-19" d="M169.12,10.32s-.06.12-.15.14c.04-.06.08-.1.13-.14,0,0,.02,0,.02,0Z"/>
            <path class="cls-10" d="M169.12,10.32s-.01,0-.02,0c.01-.02.02-.03.05-.04,0,.02,0,.03-.02.04Z"/>
          </g>
        </g>
      </g>
    </g>
  </g>
</svg>